<svg aria-hidden="true" style="position: absolute; width: 0; height: 0; overflow: hidden;" version="1.1" xmlns="http://www.w3.org/2000/svg" xmlns:xlink="http://www.w3.org/1999/xlink">
<defs>
<symbol id="icon-time" viewBox="0 0 20 20">
<path d="M10 20c-5.523 0-10-4.477-10-10s4.477-10 10-10v0c5.523 0 10 4.477 10 10s-4.477 10-10 10v0zM10 18c4.418 0 8-3.582 8-8s-3.582-8-8-8v0c-4.418 0-8 3.582-8 8s3.582 8 8 8v0zM9 10.41v-6.41h2v5.59l3.95 3.95-1.41 1.41-4.54-4.54z"></path>
</symbol>
<symbol id="icon-travel" viewBox="0 0 20 20">
<path d="M14 5h2v14h-12v-14h2v-1c0-1.105 0.895-2 2-2v0h4c1.105 0 2 0.895 2 2v0 1zM17 5h1c1.105 0 2 0.895 2 2v0 10c0 1.105-0.895 2-2 2v0h-1v-14zM3 5v14h-1c-1.105 0-2-0.895-2-2v0-10c0-1.1 0.9-2 2-2h1zM8 4v1h4v-1h-4z"></path>
</symbol>
</defs>
</svg>
